<svg id="Group_1_copy" data-name="Group 1 copy" xmlns="http://www.w3.org/2000/svg" width="671.692" height="725.525" viewBox="0 0 671.692 725.525">
  <defs>
    <style>
      .cls-1 {
        fill: #e1e0e4;
        opacity: 0.37;
      }

      .cls-1, .cls-2, .cls-3, .cls-4 {
        fill-rule: evenodd;
      }

      .cls-2 {
        fill: #efedf6;
      }

      .cls-3 {
        fill: #515efc;
      }

      .cls-4 {
        fill: none;
        stroke: #fff;
        stroke-width: 7.63px;
        opacity: 0.59;
      }
    </style>
  </defs>
  <path class="cls-1" d="M143.616,1734.55c28.81-99.28,185.847-152.51,350.753-118.89S769.6,1757.01,740.8,1856.3,502.9,2213.02,338,2179.4,114.807,1833.84,143.616,1734.55Z" transform="translate(-88.529 -1564.88)"/>
  <path id="Ellipse_1_copy_2" data-name="Ellipse 1 copy 2" class="cls-2" d="M532.756,2071.46c7.489,75.36-65.84,131.03-169.893,118.27-127.788-15.66-222.887-124.09-185.912-208.87,22.91-52.54,139.511-181.15,222.924-145.68C471.272,1865.55,527.612,2019.69,532.756,2071.46Z" transform="translate(-88.529 -1564.88)"/>
  <path id="Ellipse_1_copy_4" data-name="Ellipse 1 copy 4" class="cls-3" d="M463.087,1565.81c48.928-8.18,88.549,37.39,84.8,106.03-4.6,84.29-71.274,151.23-128.325,130.72-35.349-12.71-124.56-83.42-105.052-139.54C331.211,1614.98,429.479,1571.42,463.087,1565.81Z" transform="translate(-88.529 -1564.88)"/>
  <path class="cls-4" d="M194.21,2286.6s-31.155-211.24,43.011-194.99,93.391,73.78,44.623,77.46-111.774-122.96-76.062-162.08,134.143-60.95,224.731-65.36,243.575-60.74,246.646-131.29,13.9-105.05-44.1-130.9-99.945-98.77-122.482-37.2-1.464,98.28-141.252,149.91-194.692,144.93-241.589,53.5-45.755-160.69-5.01-165.82,207.4,23.05,172.386-44.78-48.406-54.28-66.883-21.6S315.2,1822.9,368.966,1830.8s108.515-36.02,227.335-18.75,181.47,17.44,153.535,81.18-11.963,113.24-107.271,122.56-62.533,16.85-108.682,2.99" transform="translate(-88.529 -1564.88)"/>
</svg>
